<mxfile host="Electron" agent="Mozilla/5.0 (Windows NT 10.0; Win64; x64) AppleWebKit/537.36 (KHTML, like Gecko) draw.io/26.2.2 Chrome/134.0.6998.178 Electron/35.1.2 Safari/537.36" version="26.2.2">
  <diagram name="페이지-1" id="eKefojEaa924YPP1SO0h">
    <mxGraphModel dx="1228" dy="736" grid="1" gridSize="10" guides="1" tooltips="1" connect="1" arrows="1" fold="1" page="1" pageScale="1" pageWidth="827" pageHeight="1169" math="0" shadow="0">
      <root>
        <mxCell id="0" />
        <mxCell id="1" parent="0" />
        <mxCell id="wXQywuY2MH1nd4JHiVIJ-1" value="" style="rounded=1;whiteSpace=wrap;html=1;" vertex="1" parent="1">
          <mxGeometry x="180" y="170" width="670" height="190" as="geometry" />
        </mxCell>
        <mxCell id="wXQywuY2MH1nd4JHiVIJ-2" value="SendBufferChunk" style="text;html=1;align=center;verticalAlign=middle;resizable=0;points=[];autosize=1;strokeColor=none;fillColor=none;" vertex="1" parent="1">
          <mxGeometry x="190" y="190" width="120" height="30" as="geometry" />
        </mxCell>
        <mxCell id="wXQywuY2MH1nd4JHiVIJ-3" value="SendBuffer1" style="rounded=0;whiteSpace=wrap;html=1;" vertex="1" parent="1">
          <mxGeometry x="230" y="230" width="160" height="50" as="geometry" />
        </mxCell>
        <mxCell id="wXQywuY2MH1nd4JHiVIJ-4" value="SendBuffer2" style="rounded=0;whiteSpace=wrap;html=1;" vertex="1" parent="1">
          <mxGeometry x="390" y="230" width="160" height="50" as="geometry" />
        </mxCell>
        <mxCell id="wXQywuY2MH1nd4JHiVIJ-6" value="..." style="rounded=0;whiteSpace=wrap;html=1;" vertex="1" parent="1">
          <mxGeometry x="550" y="230" width="80" height="50" as="geometry" />
        </mxCell>
        <mxCell id="wXQywuY2MH1nd4JHiVIJ-7" value="" style="rounded=0;whiteSpace=wrap;html=1;" vertex="1" parent="1">
          <mxGeometry x="630" y="230" width="80" height="50" as="geometry" />
        </mxCell>
        <mxCell id="wXQywuY2MH1nd4JHiVIJ-9" value="" style="rounded=0;whiteSpace=wrap;html=1;" vertex="1" parent="1">
          <mxGeometry x="710" y="230" width="80" height="50" as="geometry" />
        </mxCell>
        <mxCell id="wXQywuY2MH1nd4JHiVIJ-12" value="SEND_BUFFER_CHUNK_SIZE" style="text;html=1;align=center;verticalAlign=middle;resizable=0;points=[];autosize=1;strokeColor=none;fillColor=none;" vertex="1" parent="1">
          <mxGeometry x="640" y="320" width="190" height="30" as="geometry" />
        </mxCell>
        <mxCell id="wXQywuY2MH1nd4JHiVIJ-13" value="" style="endArrow=classic;html=1;rounded=0;entryX=1;entryY=1;entryDx=0;entryDy=0;exitX=0.786;exitY=-0.016;exitDx=0;exitDy=0;exitPerimeter=0;" edge="1" parent="1" source="wXQywuY2MH1nd4JHiVIJ-12" target="wXQywuY2MH1nd4JHiVIJ-9">
          <mxGeometry width="50" height="50" relative="1" as="geometry">
            <mxPoint x="710" y="490" as="sourcePoint" />
            <mxPoint x="760" y="440" as="targetPoint" />
          </mxGeometry>
        </mxCell>
      </root>
    </mxGraphModel>
  </diagram>
</mxfile>
